<?xml version="1.0" standalone="no"?>
<!DOCTYPE svg PUBLIC "-//W3C//DTD SVG 20010904//EN"
 "http://www.w3.org/TR/2001/REC-SVG-20010904/DTD/svg10.dtd">
<svg version="1.0" xmlns="http://www.w3.org/2000/svg"
 width="552.000000pt" height="238.000000pt" viewBox="0 0 552.000000 238.000000"
 preserveAspectRatio="xMidYMid meet">

<g transform="translate(0.000000,238.000000) scale(0.100000,-0.100000)"
fill="currentColor" stroke="none">
<path d="M0 1190 l0 -1190 2760 0 2760 0 0 1190 0 1190 -2760 0 -2760 0 0
-1190z m3197 964 c-3 -3 -12 -4 -19 -1 -8 3 -5 6 6 6 11 1 17 -2 13 -5z m373
-35 c507 -63 925 -174 1260 -335 944 -454 685 -1108 -571 -1443 -257 -69 -596
-126 -939 -158 -260 -24 -900 -24 -1160 0 -990 92 -1717 356 -1987 721 -24 32
-42 61 -40 63 2 2 35 -15 73 -39 297 -181 855 -330 1469 -392 380 -39 949 -45
1310 -16 632 52 1160 173 1520 349 291 143 434 291 443 461 7 117 -51 222
-179 330 -250 209 -705 364 -1365 465 -128 20 -143 24 -74 19 47 -3 155 -14
240 -25z m-807 -285 l105 -7 -226 -453 c-188 -376 -224 -455 -214 -467 11 -13
53 -14 307 -10 162 4 295 3 295 -1 0 -3 -18 -42 -40 -86 l-40 -80 -460 0
c-317 0 -460 3 -460 11 0 5 125 255 278 555 l277 544 36 0 c20 0 84 -3 142 -6z
m-273 -11 c0 -3 -125 -253 -277 -555 l-277 -548 -138 0 c-86 0 -138 4 -138 10
0 6 41 91 90 190 l90 181 -142 -3 -142 -3 -148 -180 -149 -180 -49 0 c-200 2
-242 5 -237 19 3 7 203 252 444 545 l438 531 318 0 c174 0 317 -3 317 -7z
m1719 -30 c137 -39 271 -142 302 -231 15 -45 -5 -131 -45 -189 -47 -69 -166
-146 -283 -183 l-93 -30 -273 0 -272 0 -108 -215 -107 -215 -140 0 c-127 0
-140 2 -140 18 1 9 121 253 269 542 l267 525 60 6 c32 4 154 5 269 2 184 -5
221 -8 294 -30z m-3119 -40 c0 -50 10 -83 24 -83 6 0 36 26 66 58 47 51 59 58
82 53 26 -6 26 -6 -53 -108 -77 -99 -81 -103 -118 -103 -46 0 -51 9 -51 85 0
30 -4 56 -9 60 -6 3 -35 -26 -67 -65 -47 -58 -61 -70 -86 -70 -45 0 -34 26 51
124 71 84 75 86 117 86 l44 0 0 -37z m419 22 c16 -8 31 -21 34 -30 5 -12 -2
-15 -34 -15 -24 0 -38 4 -34 10 10 16 -52 12 -85 -5 -24 -12 -30 -22 -30 -48
0 -17 4 -37 8 -43 11 -16 43 -25 64 -18 15 4 17 9 8 19 -7 8 -9 19 -5 25 7 11
83 14 110 4 14 -6 14 -8 -1 -25 -9 -11 -21 -19 -27 -19 -5 0 -18 -12 -30 -26
-20 -26 -23 -26 -95 -20 -110 9 -137 45 -93 126 38 72 137 103 210 65z m-589
-5 c0 -5 -13 -10 -28 -10 -37 0 -90 -73 -99 -136 l-6 -44 -88 0 c-49 0 -89 4
-89 8 0 14 33 40 54 44 11 1 40 29 65 61 43 55 44 58 25 72 -17 13 -10 14 74
15 55 0 92 -4 92 -10z"/>
<path d="M1885 1485 c-82 -96 -151 -181 -153 -190 -3 -13 12 -15 97 -15 l100
0 91 175 c51 97 89 182 86 190 -3 9 -19 15 -38 15 -30 0 -45 -15 -183 -175z"/>
<path d="M3723 1520 c-63 -130 -80 -172 -69 -176 8 -3 108 -4 223 -2 182 3
213 5 247 22 125 62 162 174 83 249 -58 54 -100 66 -258 72 l-144 6 -82 -171z"/>
</g>
</svg>
